<mxfile host="app.diagrams.net" modified="2024-03-23T04:30:25.283Z" agent="Mozilla/5.0 (Macintosh; Intel Mac OS X 10_15_7) AppleWebKit/537.36 (KHTML, like Gecko) Chrome/122.0.0.0 Safari/537.36" etag="OA2U5PaJExIIPGZzf5Qk" version="24.0.7" type="github">
  <diagram name="第 1 页" id="SzLL3QYjZRhpm81c2RgI">
    <mxGraphModel dx="979" dy="761" grid="1" gridSize="10" guides="1" tooltips="1" connect="1" arrows="1" fold="1" page="1" pageScale="1" pageWidth="827" pageHeight="1169" math="0" shadow="0">
      <root>
        <mxCell id="0" />
        <mxCell id="1" parent="0" />
        <mxCell id="pmjWqj78FuNZf2eYQH-d-1" value="" style="rounded=0;whiteSpace=wrap;html=1;fillColor=none;strokeWidth=2;sketch=1;curveFitting=1;jiggle=2;" vertex="1" parent="1">
          <mxGeometry x="80" y="160" width="910" height="460" as="geometry" />
        </mxCell>
        <mxCell id="pmjWqj78FuNZf2eYQH-d-2" value="" style="rounded=0;whiteSpace=wrap;html=1;fillColor=none;strokeWidth=2;strokeColor=#82b366;sketch=1;curveFitting=1;jiggle=2;" vertex="1" parent="1">
          <mxGeometry x="100" y="180" width="350" height="260" as="geometry" />
        </mxCell>
        <mxCell id="pmjWqj78FuNZf2eYQH-d-3" value="&lt;b&gt;&lt;font style=&quot;font-size: 16px;&quot;&gt;平台&lt;/font&gt;&lt;/b&gt;" style="text;html=1;align=center;verticalAlign=middle;resizable=0;points=[];autosize=1;strokeColor=none;fillColor=none;sketch=1;curveFitting=1;jiggle=2;" vertex="1" parent="1">
          <mxGeometry x="245" y="180" width="60" height="30" as="geometry" />
        </mxCell>
        <mxCell id="pmjWqj78FuNZf2eYQH-d-4" value="&lt;b&gt;&lt;font style=&quot;font-size: 14px;&quot;&gt;服务管理平台&lt;/font&gt;&lt;/b&gt;&lt;div&gt;&lt;b&gt;&lt;font style=&quot;font-size: 14px;&quot;&gt;srvmgr&lt;/font&gt;&lt;/b&gt;&lt;/div&gt;" style="rounded=0;whiteSpace=wrap;html=1;fillColor=none;strokeWidth=2;strokeColor=#82b366;sketch=1;curveFitting=1;jiggle=2;" vertex="1" parent="1">
          <mxGeometry x="120" y="210" width="90" height="40" as="geometry" />
        </mxCell>
        <mxCell id="pmjWqj78FuNZf2eYQH-d-5" value="&lt;span style=&quot;font-size: 14px;&quot;&gt;&lt;b&gt;消息中心&lt;/b&gt;&lt;/span&gt;&lt;br&gt;&lt;div&gt;&lt;span style=&quot;font-size: 14px;&quot;&gt;&lt;b&gt;zzmq&lt;/b&gt;&lt;/span&gt;&lt;/div&gt;" style="rounded=0;whiteSpace=wrap;html=1;fillColor=none;strokeWidth=2;strokeColor=#82b366;sketch=1;curveFitting=1;jiggle=2;" vertex="1" parent="1">
          <mxGeometry x="230" y="210" width="90" height="40" as="geometry" />
        </mxCell>
        <mxCell id="pmjWqj78FuNZf2eYQH-d-6" value="&lt;span style=&quot;font-size: 14px;&quot;&gt;&lt;b&gt;任务调度平台&lt;/b&gt;&lt;/span&gt;&lt;br&gt;&lt;div&gt;&lt;span style=&quot;font-size: 14px;&quot;&gt;&lt;b&gt;zzschedule&lt;/b&gt;&lt;/span&gt;&lt;/div&gt;" style="rounded=0;whiteSpace=wrap;html=1;fillColor=none;strokeWidth=2;strokeColor=#82b366;sketch=1;curveFitting=1;jiggle=2;" vertex="1" parent="1">
          <mxGeometry x="340" y="210" width="90" height="40" as="geometry" />
        </mxCell>
        <mxCell id="pmjWqj78FuNZf2eYQH-d-7" value="&lt;b&gt;&lt;font style=&quot;font-size: 14px;&quot;&gt;配置中心&lt;/font&gt;&lt;/b&gt;&lt;div&gt;&lt;b&gt;&lt;font style=&quot;font-size: 14px;&quot;&gt;apollo&lt;/font&gt;&lt;/b&gt;&lt;/div&gt;" style="rounded=0;whiteSpace=wrap;html=1;fillColor=none;strokeWidth=2;strokeColor=#82b366;sketch=1;curveFitting=1;jiggle=2;" vertex="1" parent="1">
          <mxGeometry x="120" y="330" width="90" height="40" as="geometry" />
        </mxCell>
        <mxCell id="pmjWqj78FuNZf2eYQH-d-8" value="&lt;span style=&quot;font-size: 14px;&quot;&gt;&lt;b&gt;云平台&lt;/b&gt;&lt;/span&gt;&lt;br&gt;&lt;div&gt;&lt;span style=&quot;font-size: 14px;&quot;&gt;&lt;b&gt;zzcloud&lt;/b&gt;&lt;/span&gt;&lt;/div&gt;" style="rounded=0;whiteSpace=wrap;html=1;fillColor=none;strokeWidth=2;strokeColor=#82b366;sketch=1;curveFitting=1;jiggle=2;" vertex="1" parent="1">
          <mxGeometry x="230" y="330" width="90" height="40" as="geometry" />
        </mxCell>
        <mxCell id="pmjWqj78FuNZf2eYQH-d-9" value="&lt;span style=&quot;font-size: 14px;&quot;&gt;&lt;b&gt;开放平台&lt;/b&gt;&lt;/span&gt;&lt;br&gt;&lt;div&gt;&lt;span style=&quot;font-size: 14px;&quot;&gt;&lt;b&gt;openapi&lt;/b&gt;&lt;/span&gt;&lt;/div&gt;" style="rounded=0;whiteSpace=wrap;html=1;fillColor=none;strokeWidth=2;strokeColor=#82b366;sketch=1;curveFitting=1;jiggle=2;" vertex="1" parent="1">
          <mxGeometry x="340" y="330" width="90" height="40" as="geometry" />
        </mxCell>
        <mxCell id="pmjWqj78FuNZf2eYQH-d-10" value="&lt;span style=&quot;font-size: 14px;&quot;&gt;&lt;b&gt;架构工具平台&lt;/b&gt;&lt;/span&gt;&lt;br&gt;&lt;div&gt;&lt;span style=&quot;font-size: 14px;&quot;&gt;&lt;b&gt;ipms&lt;/b&gt;&lt;/span&gt;&lt;/div&gt;" style="rounded=0;whiteSpace=wrap;html=1;fillColor=none;strokeWidth=2;strokeColor=#82b366;sketch=1;curveFitting=1;jiggle=2;" vertex="1" parent="1">
          <mxGeometry x="120" y="390" width="90" height="40" as="geometry" />
        </mxCell>
        <mxCell id="pmjWqj78FuNZf2eYQH-d-11" value="&lt;span style=&quot;font-size: 14px;&quot;&gt;&lt;b&gt;资产管理平台&lt;/b&gt;&lt;/span&gt;&lt;br&gt;&lt;div&gt;&lt;span style=&quot;font-size: 14px;&quot;&gt;&lt;b&gt;cmdb&lt;/b&gt;&lt;/span&gt;&lt;/div&gt;" style="rounded=0;whiteSpace=wrap;html=1;fillColor=none;strokeWidth=2;strokeColor=#82b366;sketch=1;curveFitting=1;jiggle=2;" vertex="1" parent="1">
          <mxGeometry x="230" y="390" width="90" height="40" as="geometry" />
        </mxCell>
        <mxCell id="pmjWqj78FuNZf2eYQH-d-12" value="&lt;span style=&quot;font-size: 14px;&quot;&gt;&lt;b&gt;企微消息平台&lt;/b&gt;&lt;/span&gt;&lt;br&gt;&lt;div&gt;&lt;span style=&quot;font-size: 14px;&quot;&gt;&lt;b&gt;wxmsg&lt;/b&gt;&lt;/span&gt;&lt;/div&gt;" style="rounded=0;whiteSpace=wrap;html=1;fillColor=none;strokeWidth=2;strokeColor=#82b366;sketch=1;curveFitting=1;jiggle=2;" vertex="1" parent="1">
          <mxGeometry x="340" y="390" width="90" height="40" as="geometry" />
        </mxCell>
        <mxCell id="pmjWqj78FuNZf2eYQH-d-14" value="&lt;b&gt;&lt;font style=&quot;font-size: 14px;&quot;&gt;立体监控系统&lt;/font&gt;&lt;/b&gt;&lt;div&gt;&lt;span style=&quot;font-size: 14px;&quot;&gt;&lt;b&gt;prometheus&lt;/b&gt;&lt;/span&gt;&lt;/div&gt;" style="rounded=0;whiteSpace=wrap;html=1;fillColor=none;strokeWidth=2;strokeColor=#82b366;sketch=1;curveFitting=1;jiggle=2;" vertex="1" parent="1">
          <mxGeometry x="120" y="270" width="90" height="40" as="geometry" />
        </mxCell>
        <mxCell id="pmjWqj78FuNZf2eYQH-d-15" value="&lt;span style=&quot;font-size: 14px;&quot;&gt;&lt;b&gt;链路追踪&lt;/b&gt;&lt;/span&gt;&lt;br&gt;&lt;div&gt;&lt;span style=&quot;font-size: 14px;&quot;&gt;&lt;b&gt;radar&lt;/b&gt;&lt;/span&gt;&lt;/div&gt;" style="rounded=0;whiteSpace=wrap;html=1;fillColor=none;strokeWidth=2;strokeColor=#82b366;sketch=1;curveFitting=1;jiggle=2;" vertex="1" parent="1">
          <mxGeometry x="230" y="270" width="90" height="40" as="geometry" />
        </mxCell>
        <mxCell id="pmjWqj78FuNZf2eYQH-d-16" value="&lt;span style=&quot;font-size: 14px;&quot;&gt;&lt;b&gt;日志平台&lt;/b&gt;&lt;/span&gt;&lt;br&gt;&lt;div&gt;&lt;span style=&quot;font-size: 14px;&quot;&gt;&lt;b&gt;zzlog&lt;/b&gt;&lt;/span&gt;&lt;/div&gt;" style="rounded=0;whiteSpace=wrap;html=1;fillColor=none;strokeWidth=2;strokeColor=#82b366;sketch=1;curveFitting=1;jiggle=2;" vertex="1" parent="1">
          <mxGeometry x="340" y="270" width="90" height="40" as="geometry" />
        </mxCell>
        <mxCell id="pmjWqj78FuNZf2eYQH-d-17" value="" style="rounded=0;whiteSpace=wrap;html=1;strokeWidth=2;sketch=1;curveFitting=1;jiggle=2;fillColor=none;strokeColor=#6c8ebf;" vertex="1" parent="1">
          <mxGeometry x="100" y="460" width="350" height="140" as="geometry" />
        </mxCell>
        <mxCell id="pmjWqj78FuNZf2eYQH-d-18" value="&lt;span style=&quot;font-size: 16px;&quot;&gt;&lt;b&gt;基础中间件&lt;/b&gt;&lt;/span&gt;" style="text;html=1;align=center;verticalAlign=middle;resizable=0;points=[];autosize=1;strokeColor=none;fillColor=none;sketch=1;curveFitting=1;jiggle=2;" vertex="1" parent="1">
          <mxGeometry x="225" y="460" width="100" height="30" as="geometry" />
        </mxCell>
        <mxCell id="pmjWqj78FuNZf2eYQH-d-19" value="&lt;span style=&quot;font-size: 14px;&quot;&gt;&lt;b&gt;基础工具包&lt;/b&gt;&lt;/span&gt;&lt;div&gt;&lt;b style=&quot;&quot;&gt;&lt;font style=&quot;font-size: 13px;&quot;&gt;arch-common&lt;/font&gt;&lt;/b&gt;&lt;/div&gt;" style="rounded=0;whiteSpace=wrap;html=1;fillColor=none;strokeWidth=2;strokeColor=#6c8ebf;sketch=1;curveFitting=1;jiggle=2;" vertex="1" parent="1">
          <mxGeometry x="120" y="490" width="90" height="40" as="geometry" />
        </mxCell>
        <mxCell id="pmjWqj78FuNZf2eYQH-d-20" value="&lt;span style=&quot;font-size: 14px;&quot;&gt;&lt;b&gt;日志工具包&lt;/b&gt;&lt;/span&gt;&lt;br&gt;&lt;div&gt;&lt;span style=&quot;font-size: 14px;&quot;&gt;&lt;b&gt;log-common&lt;/b&gt;&lt;/span&gt;&lt;/div&gt;" style="rounded=0;whiteSpace=wrap;html=1;fillColor=none;strokeWidth=2;strokeColor=#6c8ebf;sketch=1;curveFitting=1;jiggle=2;" vertex="1" parent="1">
          <mxGeometry x="230" y="490" width="90" height="40" as="geometry" />
        </mxCell>
        <mxCell id="pmjWqj78FuNZf2eYQH-d-21" value="&lt;span style=&quot;font-size: 14px;&quot;&gt;&lt;b&gt;复仇者框架&lt;/b&gt;&lt;/span&gt;&lt;br&gt;&lt;div&gt;&lt;span style=&quot;font-size: 14px;&quot;&gt;&lt;b&gt;avenger&lt;/b&gt;&lt;/span&gt;&lt;/div&gt;" style="rounded=0;whiteSpace=wrap;html=1;fillColor=none;strokeWidth=2;strokeColor=#6c8ebf;sketch=1;curveFitting=1;jiggle=2;" vertex="1" parent="1">
          <mxGeometry x="340" y="490" width="90" height="40" as="geometry" />
        </mxCell>
        <mxCell id="pmjWqj78FuNZf2eYQH-d-28" value="&lt;b&gt;&lt;font style=&quot;font-size: 14px;&quot;&gt;连接池监控&lt;/font&gt;&lt;/b&gt;" style="rounded=0;whiteSpace=wrap;html=1;fillColor=none;strokeWidth=2;strokeColor=#6c8ebf;sketch=1;curveFitting=1;jiggle=2;" vertex="1" parent="1">
          <mxGeometry x="120" y="550" width="90" height="40" as="geometry" />
        </mxCell>
        <mxCell id="pmjWqj78FuNZf2eYQH-d-29" value="&lt;span style=&quot;font-size: 14px;&quot;&gt;&lt;b&gt;线程池监控&lt;/b&gt;&lt;/span&gt;" style="rounded=0;whiteSpace=wrap;html=1;fillColor=none;strokeWidth=2;strokeColor=#6c8ebf;sketch=1;curveFitting=1;jiggle=2;" vertex="1" parent="1">
          <mxGeometry x="230" y="550" width="90" height="40" as="geometry" />
        </mxCell>
        <mxCell id="pmjWqj78FuNZf2eYQH-d-30" value="&lt;span style=&quot;font-size: 14px;&quot;&gt;&lt;b&gt;基础agent&lt;/b&gt;&lt;/span&gt;" style="rounded=0;whiteSpace=wrap;html=1;fillColor=none;strokeWidth=2;strokeColor=#6c8ebf;sketch=1;curveFitting=1;jiggle=2;" vertex="1" parent="1">
          <mxGeometry x="340" y="550" width="90" height="40" as="geometry" />
        </mxCell>
        <mxCell id="pmjWqj78FuNZf2eYQH-d-31" value="" style="rounded=0;whiteSpace=wrap;html=1;fillColor=none;strokeWidth=2;strokeColor=#9673a6;sketch=1;curveFitting=1;jiggle=2;" vertex="1" parent="1">
          <mxGeometry x="470" y="180" width="240" height="260" as="geometry" />
        </mxCell>
        <mxCell id="pmjWqj78FuNZf2eYQH-d-32" value="&lt;b&gt;&lt;font style=&quot;font-size: 16px;&quot;&gt;开发框架&lt;/font&gt;&lt;/b&gt;" style="text;html=1;align=center;verticalAlign=middle;resizable=0;points=[];autosize=1;strokeColor=none;fillColor=none;sketch=1;curveFitting=1;jiggle=2;" vertex="1" parent="1">
          <mxGeometry x="535" y="180" width="90" height="30" as="geometry" />
        </mxCell>
        <mxCell id="pmjWqj78FuNZf2eYQH-d-33" value="&lt;div&gt;&lt;b&gt;&lt;font style=&quot;font-size: 14px;&quot;&gt;项目框架&lt;/font&gt;&lt;/b&gt;&lt;/div&gt;&lt;b&gt;&lt;font style=&quot;font-size: 14px;&quot;&gt;zzjava/scf&lt;/font&gt;&lt;/b&gt;" style="rounded=0;whiteSpace=wrap;html=1;fillColor=none;strokeWidth=2;strokeColor=#9673a6;sketch=1;curveFitting=1;jiggle=2;" vertex="1" parent="1">
          <mxGeometry x="490" y="210" width="200" height="40" as="geometry" />
        </mxCell>
        <mxCell id="pmjWqj78FuNZf2eYQH-d-36" value="&lt;b&gt;&lt;font style=&quot;font-size: 14px;&quot;&gt;pom管理&lt;/font&gt;&lt;/b&gt;&lt;div&gt;&lt;span style=&quot;font-size: 14px;&quot;&gt;&lt;b&gt;superpom&lt;/b&gt;&lt;/span&gt;&lt;/div&gt;" style="rounded=0;whiteSpace=wrap;html=1;fillColor=none;strokeWidth=2;strokeColor=#9673a6;sketch=1;curveFitting=1;jiggle=2;" vertex="1" parent="1">
          <mxGeometry x="490" y="330" width="200" height="40" as="geometry" />
        </mxCell>
        <mxCell id="pmjWqj78FuNZf2eYQH-d-39" value="&lt;span style=&quot;font-size: 14px;&quot;&gt;&lt;b&gt;Java运行环境&lt;/b&gt;&lt;/span&gt;&lt;br&gt;&lt;div&gt;&lt;span style=&quot;font-size: 14px;&quot;&gt;&lt;b&gt;JDK&lt;/b&gt;&lt;/span&gt;&lt;/div&gt;" style="rounded=0;whiteSpace=wrap;html=1;fillColor=none;strokeWidth=2;strokeColor=#9673a6;sketch=1;curveFitting=1;jiggle=2;" vertex="1" parent="1">
          <mxGeometry x="490" y="390" width="200" height="40" as="geometry" />
        </mxCell>
        <mxCell id="pmjWqj78FuNZf2eYQH-d-42" value="&lt;b&gt;&lt;font style=&quot;font-size: 14px;&quot;&gt;脚手架&lt;/font&gt;&lt;/b&gt;&lt;div&gt;&lt;span style=&quot;font-size: 14px;&quot;&gt;&lt;b&gt;zzarchetype&lt;/b&gt;&lt;/span&gt;&lt;/div&gt;" style="rounded=0;whiteSpace=wrap;html=1;fillColor=none;strokeWidth=2;strokeColor=#9673a6;sketch=1;curveFitting=1;jiggle=2;" vertex="1" parent="1">
          <mxGeometry x="490" y="270" width="200" height="40" as="geometry" />
        </mxCell>
        <mxCell id="pmjWqj78FuNZf2eYQH-d-45" value="" style="rounded=0;whiteSpace=wrap;html=1;fillColor=none;strokeWidth=2;strokeColor=#d79b00;sketch=1;curveFitting=1;jiggle=2;" vertex="1" parent="1">
          <mxGeometry x="470" y="460" width="240" height="140" as="geometry" />
        </mxCell>
        <mxCell id="pmjWqj78FuNZf2eYQH-d-46" value="&lt;span style=&quot;font-size: 16px;&quot;&gt;&lt;b&gt;存储层&lt;/b&gt;&lt;/span&gt;" style="text;html=1;align=center;verticalAlign=middle;resizable=0;points=[];autosize=1;strokeColor=none;fillColor=none;sketch=1;curveFitting=1;jiggle=2;" vertex="1" parent="1">
          <mxGeometry x="545" y="460" width="70" height="30" as="geometry" />
        </mxCell>
        <mxCell id="pmjWqj78FuNZf2eYQH-d-47" value="&lt;span style=&quot;font-size: 14px;&quot;&gt;&lt;b&gt;内存缓存&lt;/b&gt;&lt;/span&gt;&lt;div&gt;&lt;b style=&quot;&quot;&gt;&lt;font style=&quot;font-size: 13px;&quot;&gt;Codis/Redis&lt;/font&gt;&lt;/b&gt;&lt;/div&gt;" style="rounded=0;whiteSpace=wrap;html=1;fillColor=none;strokeWidth=2;strokeColor=#d79b00;sketch=1;curveFitting=1;jiggle=2;" vertex="1" parent="1">
          <mxGeometry x="490" y="490" width="90" height="40" as="geometry" />
        </mxCell>
        <mxCell id="pmjWqj78FuNZf2eYQH-d-48" value="&lt;span style=&quot;font-size: 14px;&quot;&gt;&lt;b&gt;固化KV存储&lt;/b&gt;&lt;/span&gt;&lt;br&gt;&lt;div&gt;&lt;span style=&quot;font-size: 14px;&quot;&gt;&lt;b&gt;zzkv/tendis&lt;/b&gt;&lt;/span&gt;&lt;/div&gt;" style="rounded=0;whiteSpace=wrap;html=1;fillColor=none;strokeWidth=2;strokeColor=#d79b00;sketch=1;curveFitting=1;jiggle=2;" vertex="1" parent="1">
          <mxGeometry x="600" y="490" width="90" height="40" as="geometry" />
        </mxCell>
        <mxCell id="pmjWqj78FuNZf2eYQH-d-49" value="&lt;span style=&quot;font-size: 14px;&quot;&gt;&lt;b&gt;对象存储&lt;/b&gt;&lt;/span&gt;&lt;br&gt;&lt;div&gt;&lt;span style=&quot;font-size: 14px;&quot;&gt;&lt;b&gt;media&lt;/b&gt;&lt;/span&gt;&lt;/div&gt;" style="rounded=0;whiteSpace=wrap;html=1;fillColor=none;strokeWidth=2;strokeColor=#d79b00;sketch=1;curveFitting=1;jiggle=2;" vertex="1" parent="1">
          <mxGeometry x="490" y="550" width="90" height="40" as="geometry" />
        </mxCell>
        <mxCell id="pmjWqj78FuNZf2eYQH-d-53" value="&lt;span style=&quot;font-size: 14px;&quot;&gt;&lt;b&gt;密钥管理&lt;/b&gt;&lt;/span&gt;&lt;br&gt;&lt;div&gt;&lt;span style=&quot;font-size: 14px;&quot;&gt;&lt;b&gt;KMS&lt;/b&gt;&lt;/span&gt;&lt;/div&gt;" style="rounded=0;whiteSpace=wrap;html=1;fillColor=none;strokeWidth=2;strokeColor=#d79b00;sketch=1;curveFitting=1;jiggle=2;" vertex="1" parent="1">
          <mxGeometry x="600" y="550" width="90" height="40" as="geometry" />
        </mxCell>
        <mxCell id="pmjWqj78FuNZf2eYQH-d-54" value="" style="rounded=0;whiteSpace=wrap;html=1;fillColor=none;strokeWidth=2;strokeColor=#b85450;sketch=1;curveFitting=1;jiggle=2;" vertex="1" parent="1">
          <mxGeometry x="730" y="180" width="240" height="420" as="geometry" />
        </mxCell>
        <mxCell id="pmjWqj78FuNZf2eYQH-d-55" value="&lt;span style=&quot;font-size: 16px;&quot;&gt;&lt;b&gt;基础服务&lt;/b&gt;&lt;/span&gt;" style="text;html=1;align=center;verticalAlign=middle;resizable=0;points=[];autosize=1;strokeColor=none;fillColor=none;sketch=1;curveFitting=1;jiggle=2;" vertex="1" parent="1">
          <mxGeometry x="795" y="180" width="90" height="30" as="geometry" />
        </mxCell>
        <mxCell id="pmjWqj78FuNZf2eYQH-d-56" value="&lt;b&gt;&lt;font style=&quot;font-size: 14px;&quot;&gt;网关&lt;/font&gt;&lt;/b&gt;&lt;div&gt;&lt;b&gt;&lt;font style=&quot;font-size: 14px;&quot;&gt;zzentry&lt;/font&gt;&lt;/b&gt;&lt;/div&gt;" style="rounded=0;whiteSpace=wrap;html=1;fillColor=none;strokeWidth=2;strokeColor=#b85450;sketch=1;curveFitting=1;jiggle=2;" vertex="1" parent="1">
          <mxGeometry x="750" y="210" width="90" height="40" as="geometry" />
        </mxCell>
        <mxCell id="pmjWqj78FuNZf2eYQH-d-57" value="&lt;span style=&quot;font-size: 14px;&quot;&gt;&lt;b&gt;服务数字化&lt;/b&gt;&lt;/span&gt;" style="rounded=0;whiteSpace=wrap;html=1;fillColor=none;strokeWidth=2;strokeColor=#b85450;sketch=1;curveFitting=1;jiggle=2;" vertex="1" parent="1">
          <mxGeometry x="860" y="210" width="90" height="40" as="geometry" />
        </mxCell>
        <mxCell id="pmjWqj78FuNZf2eYQH-d-58" value="&lt;span style=&quot;font-size: 14px;&quot;&gt;&lt;b&gt;短信服务&lt;/b&gt;&lt;/span&gt;&lt;br&gt;&lt;div&gt;&lt;span style=&quot;font-size: 14px;&quot;&gt;&lt;b&gt;zzsms&lt;/b&gt;&lt;/span&gt;&lt;/div&gt;" style="rounded=0;whiteSpace=wrap;html=1;fillColor=none;strokeWidth=2;strokeColor=#b85450;sketch=1;curveFitting=1;jiggle=2;" vertex="1" parent="1">
          <mxGeometry x="860" y="270" width="90" height="40" as="geometry" />
        </mxCell>
        <mxCell id="pmjWqj78FuNZf2eYQH-d-59" value="&lt;b&gt;&lt;font style=&quot;font-size: 14px;&quot;&gt;用户认证&lt;/font&gt;&lt;/b&gt;&lt;div&gt;&lt;b&gt;&lt;font style=&quot;font-size: 14px;&quot;&gt;zzsso&lt;/font&gt;&lt;/b&gt;&lt;/div&gt;" style="rounded=0;whiteSpace=wrap;html=1;fillColor=none;strokeWidth=2;strokeColor=#b85450;sketch=1;curveFitting=1;jiggle=2;" vertex="1" parent="1">
          <mxGeometry x="750" y="450" width="90" height="40" as="geometry" />
        </mxCell>
        <mxCell id="pmjWqj78FuNZf2eYQH-d-60" value="&lt;span style=&quot;font-size: 14px;&quot;&gt;&lt;b&gt;用户权限&lt;/b&gt;&lt;/span&gt;&lt;br&gt;&lt;div&gt;&lt;span style=&quot;font-size: 14px;&quot;&gt;&lt;b&gt;zzauth&lt;/b&gt;&lt;/span&gt;&lt;/div&gt;" style="rounded=0;whiteSpace=wrap;html=1;fillColor=none;strokeWidth=2;strokeColor=#b85450;sketch=1;curveFitting=1;jiggle=2;" vertex="1" parent="1">
          <mxGeometry x="860" y="450" width="90" height="40" as="geometry" />
        </mxCell>
        <mxCell id="pmjWqj78FuNZf2eYQH-d-61" value="&lt;span style=&quot;font-size: 14px;&quot;&gt;&lt;b&gt;用户操作&lt;/b&gt;&lt;/span&gt;&lt;br&gt;&lt;div&gt;&lt;span style=&quot;font-size: 14px;&quot;&gt;&lt;b&gt;zzoplog&lt;/b&gt;&lt;/span&gt;&lt;/div&gt;" style="rounded=0;whiteSpace=wrap;html=1;fillColor=none;strokeWidth=2;strokeColor=#b85450;sketch=1;curveFitting=1;jiggle=2;" vertex="1" parent="1">
          <mxGeometry x="860" y="390" width="90" height="40" as="geometry" />
        </mxCell>
        <mxCell id="pmjWqj78FuNZf2eYQH-d-62" value="&lt;span style=&quot;font-size: 14px;&quot;&gt;&lt;b&gt;服务瘦身&lt;/b&gt;&lt;/span&gt;" style="rounded=0;whiteSpace=wrap;html=1;fillColor=none;strokeWidth=2;strokeColor=#b85450;sketch=1;curveFitting=1;jiggle=2;" vertex="1" parent="1">
          <mxGeometry x="750" y="270" width="90" height="40" as="geometry" />
        </mxCell>
        <mxCell id="pmjWqj78FuNZf2eYQH-d-63" value="&lt;span style=&quot;font-size: 14px;&quot;&gt;&lt;b&gt;GPT代理&lt;/b&gt;&lt;/span&gt;&lt;br&gt;&lt;div&gt;&lt;span style=&quot;font-size: 14px;&quot;&gt;&lt;b&gt;gpt-agent&lt;/b&gt;&lt;/span&gt;&lt;/div&gt;" style="rounded=0;whiteSpace=wrap;html=1;fillColor=none;strokeWidth=2;strokeColor=#b85450;sketch=1;curveFitting=1;jiggle=2;" vertex="1" parent="1">
          <mxGeometry x="750" y="510" width="90" height="40" as="geometry" />
        </mxCell>
        <mxCell id="pmjWqj78FuNZf2eYQH-d-64" value="&lt;span style=&quot;font-size: 14px;&quot;&gt;&lt;b&gt;通用邮件&lt;/b&gt;&lt;/span&gt;&lt;br&gt;&lt;div&gt;&lt;span style=&quot;font-size: 14px;&quot;&gt;&lt;b&gt;mail&lt;/b&gt;&lt;/span&gt;&lt;/div&gt;" style="rounded=0;whiteSpace=wrap;html=1;fillColor=none;strokeWidth=2;strokeColor=#b85450;sketch=1;curveFitting=1;jiggle=2;" vertex="1" parent="1">
          <mxGeometry x="860" y="510" width="90" height="40" as="geometry" />
        </mxCell>
        <mxCell id="pmjWqj78FuNZf2eYQH-d-65" value="&lt;span style=&quot;font-size: 14px;&quot;&gt;&lt;b&gt;ID生成器&lt;/b&gt;&lt;/span&gt;&lt;br&gt;&lt;div&gt;&lt;span style=&quot;font-size: 14px;&quot;&gt;&lt;b&gt;zzidc&lt;/b&gt;&lt;/span&gt;&lt;/div&gt;" style="rounded=0;whiteSpace=wrap;html=1;fillColor=none;strokeWidth=2;strokeColor=#b85450;sketch=1;curveFitting=1;jiggle=2;" vertex="1" parent="1">
          <mxGeometry x="860" y="330" width="90" height="40" as="geometry" />
        </mxCell>
        <mxCell id="pmjWqj78FuNZf2eYQH-d-66" value="&lt;span style=&quot;font-size: 14px;&quot;&gt;&lt;b&gt;分布式锁&lt;/b&gt;&lt;/span&gt;&lt;br&gt;&lt;div&gt;&lt;span style=&quot;font-size: 14px;&quot;&gt;&lt;b&gt;zzlock&lt;/b&gt;&lt;/span&gt;&lt;/div&gt;" style="rounded=0;whiteSpace=wrap;html=1;fillColor=none;strokeWidth=2;strokeColor=#b85450;sketch=1;curveFitting=1;jiggle=2;" vertex="1" parent="1">
          <mxGeometry x="750" y="390" width="90" height="40" as="geometry" />
        </mxCell>
        <mxCell id="pmjWqj78FuNZf2eYQH-d-67" value="&lt;span style=&quot;font-size: 14px;&quot;&gt;&lt;b&gt;短网址&lt;/b&gt;&lt;/span&gt;&lt;br&gt;&lt;div&gt;&lt;span style=&quot;font-size: 14px;&quot;&gt;&lt;b&gt;zztinyurl&lt;/b&gt;&lt;/span&gt;&lt;/div&gt;" style="rounded=0;whiteSpace=wrap;html=1;fillColor=none;strokeWidth=2;strokeColor=#b85450;sketch=1;curveFitting=1;jiggle=2;" vertex="1" parent="1">
          <mxGeometry x="750" y="330" width="90" height="40" as="geometry" />
        </mxCell>
        <mxCell id="pmjWqj78FuNZf2eYQH-d-68" value="&lt;span style=&quot;font-size: 14px;&quot;&gt;&lt;b&gt;流量管理 Sentinel&lt;/b&gt;&lt;/span&gt;" style="rounded=0;whiteSpace=wrap;html=1;fillColor=none;strokeWidth=2;strokeColor=#b85450;sketch=1;curveFitting=1;jiggle=2;" vertex="1" parent="1">
          <mxGeometry x="750" y="560" width="200" height="30" as="geometry" />
        </mxCell>
        <mxCell id="pmjWqj78FuNZf2eYQH-d-70" value="" style="rounded=0;whiteSpace=wrap;html=1;fillColor=none;strokeWidth=2;dashed=1;strokeColor=#82b366;" vertex="1" parent="1">
          <mxGeometry x="110" y="260" width="330" height="60" as="geometry" />
        </mxCell>
      </root>
    </mxGraphModel>
  </diagram>
</mxfile>
